PathFileType	4	(X/Y/Z)	OpenSim_Sub06_EMGStiffKnee_Magnet.trc
DataRate	CameraRate	NumFrames	NumMarkers	Units	OrigDataRate	OrigDataStartFrame	OrigNumFrames
100	100	36	8	m	100	2038	5432
Frame#	Time	torso_imu_offset_imu	pelvis_imu_offset_imu	tibia_r_imu_offset_imu	femur_r_imu_offset_imu	tibia_l_imu_offset_imu	femur_l_imu_offset_imu	toes_r_imu_offset_imu	toes_l_imu_offset_imu
				X1	Y1	Z1	X2	Y2	Z2	X3	Y3	Z3	X4	Y4	Z4	X5	Y5	Z5	X6	Y6	Z6	X7	Y7	Z7	X8		Y8	Z8	

2038	20.37000000	-0.92846700	-0.06762700	0.13549800	-0.44213900	0.06616200	-0.82836900	-0.45898400	-0.65747100	-0.12695300	-0.63305700	-0.48510700	0.18554700	-0.74096700	0.28979500	-0.05981400	-0.76782200	0.22192400	0.21484400	-0.64770500	-0.24731400	-0.38525400	-0.61718800	-0.04467800	-0.53002900
2039	20.38000000	-0.92822300	-0.07397500	0.13134800	-0.44238300	0.07006800	-0.81445300	-0.45434600	-0.66796900	-0.12670900	-0.63085900	-0.48925800	0.18579100	-0.74316400	0.28979500	-0.04858400	-0.76342800	0.22192400	0.21484400	-0.64770500	-0.24731400	-0.37695300	-0.60815400	-0.04907200	-0.52099600
2040	20.39000000	-0.93261700	-0.07202100	0.13134800	-0.44433600	0.06591800	-0.81201200	-0.44384800	-0.67211900	-0.12646500	-0.62841800	-0.49340800	0.18359400	-0.74975600	0.28540000	-0.05053700	-0.76318400	0.21972700	0.21923800	-0.65380900	-0.25561500	-0.37280300	-0.60766600	-0.06225600	-0.52099600
2041	20.40000000	-0.93042000	-0.07177700	0.13354500	-0.44677700	0.07641600	-0.81250000	-0.44165000	-0.67627000	-0.12182600	-0.63037100	-0.49755900	0.17919900	-0.74316400	0.28759800	-0.04614300	-0.76538100	0.21972700	0.21923800	-0.65380900	-0.25366200	-0.37060500	-0.60766600	-0.06225600	-0.52099600
2042	20.41000000	-0.93286100	-0.06762700	0.12670900	-0.44897500	0.07421900	-0.81689500	-0.43335000	-0.67211900	-0.13085900	-0.63061500	-0.49755900	0.18359400	-0.74316400	0.28979500	-0.04638700	-0.76318400	0.21752900	0.22827100	-0.65576200	-0.25976600	-0.36425800	-0.60986300	-0.06005900	-0.51196300
2043	20.42000000	-0.93066400	-0.06762700	0.12890600	-0.44897500	0.08056600	-0.81030300	-0.41821300	-0.68652300	-0.13720700	-0.62622100	-0.49951200	0.18139600	-0.73681600	0.29858400	-0.04687500	-0.76733400	0.21313500	0.23071300	-0.66162100	-0.27026400	-0.36206100	-0.61865200	-0.06445300	-0.50512700
2044	20.43000000	-0.93066400	-0.06543000	0.12670900	-0.45141600	0.08276400	-0.80566400	-0.41162100	-0.69067400	-0.14379900	-0.62817400	-0.50170900	0.17236300	-0.73486300	0.30957000	-0.04296900	-0.76074200	0.21337900	0.23071300	-0.65551800	-0.27002000	-0.35595700	-0.63964800	-0.04052700	-0.49194300
2045	20.44000000	-0.92627000	-0.06982400	0.12255900	-0.45141600	0.08471700	-0.80346700	-0.39892600	-0.69482400	-0.15014600	-0.62622100	-0.49755900	0.16992200	-0.72851600	0.32055700	-0.04589800	-0.76074200	0.20898400	0.23510700	-0.66162100	-0.27636700	-0.35571300	-0.65112300	-0.03637700	-0.46484400
2046	20.45000000	-0.93481400	-0.06982400	0.11572300	-0.45825200	0.09521500	-0.80151400	-0.38842800	-0.70117200	-0.15454100	-0.62817400	-0.50366200	0.16552700	-0.72680700	0.33813500	-0.04443400	-0.76293900	0.21093800	0.23974600	-0.65722700	-0.28247100	-0.34521500	-0.66015600	-0.03662100	-0.44702100
2047	20.46000000	-0.94140600	-0.06762700	0.11132800	-0.46044900	0.09936500	-0.79223600	-0.37158200	-0.70117200	-0.15454100	-0.63256800	-0.49755900	0.16772500	-0.72021500	0.34252900	-0.04028300	-0.75415000	0.20898400	0.24633800	-0.65918000	-0.29052700	-0.33691400	-0.66723600	-0.02563500	-0.43579100
2048	20.47000000	-0.93701200	-0.06762700	0.10913100	-0.46289100	0.10766600	-0.78564500	-0.35864300	-0.71362300	-0.15625000	-0.63232400	-0.50585900	0.16796900	-0.71167000	0.36010700	-0.04126000	-0.75195300	0.21337900	0.25756800	-0.66308600	-0.29882800	-0.33056600	-0.64233400	-0.03418000	-0.47168000
2049	20.48000000	-0.93066400	-0.06543000	0.10034200	-0.47583000	0.11181600	-0.78808600	-0.34594700	-0.71777300	-0.15600600	-0.63256800	-0.49340800	0.16967800	-0.71191400	0.36889600	-0.04174800	-0.74560500	0.21997100	0.26416000	-0.66503900	-0.30297900	-0.31372100	-0.65698200	-0.05859400	-0.44921900
2050	20.49000000	-0.93066400	-0.06347700	0.09570300	-0.47607400	0.11377000	-0.77661100	-0.33520500	-0.72827100	-0.16015600	-0.63696300	-0.49145500	0.16967800	-0.70800800	0.38208000	-0.03344700	-0.74340800	0.21777300	0.26635700	-0.66699200	-0.31347700	-0.30322300	-0.65332000	-0.03857400	-0.45825200
2051	20.50000000	-0.93286100	-0.06762700	0.09375000	-0.48437500	0.10546900	-0.77636700	-0.31201200	-0.73657200	-0.15307600	-0.64550800	-0.48095700	0.16479500	-0.69482400	0.39746100	-0.03442400	-0.74340800	0.21997100	0.27539100	-0.67285200	-0.32373000	-0.29052700	-0.65502900	-0.04736300	-0.46044900
2052	20.51000000	-0.93066400	-0.06982400	0.08935500	-0.48437500	0.10327100	-0.77612300	-0.29907200	-0.74487300	-0.14843800	-0.65210000	-0.47485400	0.16674800	-0.69067400	0.40844700	-0.01709000	-0.74511700	0.20898400	0.27343800	-0.67260700	-0.33813500	-0.26953100	-0.65722700	-0.05200200	-0.45141600
2053	20.52000000	-0.93066400	-0.06762700	0.08935500	-0.48852500	0.09887700	-0.77368200	-0.28222700	-0.74682600	-0.14379900	-0.66284200	-0.46679700	0.16186500	-0.68872100	0.41918900	0.00244100	-0.74487300	0.19824200	0.27783200	-0.67407200	-0.36059600	-0.25244100	-0.65722700	-0.04980500	-0.45141600
2054	20.53000000	-0.93701200	-0.06762700	0.08496100	-0.49267600	0.09252900	-0.77124000	-0.26733400	-0.75952100	-0.13208000	-0.66748000	-0.44799800	0.16552700	-0.67993200	0.42358400	0.01342800	-0.74462900	0.19384800	0.28247100	-0.67163100	-0.37500000	-0.21679700	-0.65942400	-0.04980500	-0.45581100
2055	20.54000000	-0.93042000	-0.07617200	0.08960000	-0.49462900	0.09057600	-0.76879900	-0.25048800	-0.76147500	-0.12988300	-0.68261700	-0.43359400	0.16040000	-0.67773400	0.42797900	0.01757800	-0.74462900	0.18945300	0.28710900	-0.67334000	-0.38964800	-0.19165000	-0.66406200	-0.04980500	-0.44458000
2056	20.55000000	-0.93261700	-0.07177700	0.08960000	-0.49072300	0.09887700	-0.77368200	-0.23144500	-0.77197300	-0.12719700	-0.68920900	-0.42334000	0.15771500	-0.67358400	0.43457000	0.02612300	-0.74267600	0.20263700	0.28247100	-0.67944300	-0.40210000	-0.15820300	-0.67065400	-0.05200200	-0.44921900
2057	20.56000000	-0.93237300	-0.08252000	0.08764600	-0.49292000	0.10107400	-0.76928700	-0.21679700	-0.76977500	-0.12939500	-0.70214800	-0.40478500	0.14794900	-0.67138700	0.44116200	0.02587900	-0.74292000	0.20483400	0.29589800	-0.67065400	-0.42456100	-0.13061500	-0.66381800	-0.05419900	-0.44238300
2058	20.57000000	-0.92797900	-0.08252000	0.08544900	-0.49072300	0.10522500	-0.77172900	-0.19360400	-0.77392600	-0.13378900	-0.71313500	-0.39038100	0.14038100	-0.67358400	0.44116200	0.02587900	-0.72998000	0.21362300	0.30249000	-0.66186500	-0.44091800	-0.09497100	-0.66845700	-0.04980500	-0.44238300
2059	20.58000000	-0.92578100	-0.08667000	0.08349600	-0.50170900	0.11157200	-0.76953100	-0.17260700	-0.77612300	-0.13818400	-0.71557600	-0.37988300	0.13305700	-0.66723600	0.44775400	0.02539100	-0.72143600	0.22021500	0.30004900	-0.65283200	-0.46533200	-0.06127900	-0.67089800	-0.04760700	-0.44458000
2060	20.59000000	-0.92578100	-0.08862300	0.08789100	-0.49560500	0.11987300	-0.76757800	-0.14941400	-0.78222700	-0.14672900	-0.72851600	-0.36767600	0.12793000	-0.66479500	0.44555700	0.02099600	-0.71972700	0.23754900	0.30883800	-0.64184600	-0.48974600	-0.03173800	-0.66845700	-0.04980500	-0.44702100
2061	20.60000000	-0.92578100	-0.08447300	0.08569300	-0.49169900	0.13037100	-0.76782200	-0.14331100	-0.77807600	-0.14013700	-0.73510700	-0.35107400	0.12280300	-0.66748000	0.45654300	0.02710000	-0.71801800	0.25073200	0.30664100	-0.61865200	-0.51001000	0.00415000	-0.67309600	-0.04321300	-0.44702100
2062	20.61000000	-0.92993200	-0.09082000	0.08154300	-0.49389600	0.13452100	-0.76123000	-0.13281200	-0.78002900	-0.15795900	-0.74609400	-0.33667000	0.11523400	-0.66308600	0.45874000	0.02710000	-0.71606400	0.25927700	0.31103500	-0.60546900	-0.53051800	0.04418900	-0.66626000	-0.04980500	-0.44702100
2063	20.62000000	-0.92358400	-0.09082000	0.08154300	-0.49414100	0.14306600	-0.76147500	-0.12866200	-0.78002900	-0.16259800	-0.75048800	-0.33056600	0.11279300	-0.65185500	0.45874000	0.02905300	-0.71411100	0.26806600	0.30419900	-0.58227500	-0.54858400	0.08203100	-0.67089800	-0.04541000	-0.44238300
2064	20.63000000	-0.92358400	-0.08667000	0.07031200	-0.49853500	0.14721700	-0.76391600	-0.11816400	-0.77807600	-0.16259800	-0.76123000	-0.31616200	0.10522500	-0.66088900	0.46533200	0.03564500	-0.70996100	0.27465800	0.30175800	-0.56933600	-0.56494100	0.10327100	-0.67089800	-0.04321300	-0.44238300
2065	20.64000000	-0.92358400	-0.08862300	0.07031200	-0.49853500	0.14721700	-0.76147500	-0.10546900	-0.78198200	-0.17578100	-0.75952100	-0.30566400	0.09814500	-0.65429700	0.46752900	0.04223600	-0.70581100	0.28344700	0.30835000	-0.55249000	-0.56884800	0.10546900	-0.67749000	-0.04785200	-0.44018600
2066	20.65000000	-0.92993200	-0.09082000	0.07055700	-0.49658200	0.14917000	-0.75927700	-0.10376000	-0.77148400	-0.19409200	-0.77465800	-0.29126000	0.09985400	-0.65429700	0.47192400	0.04858400	-0.70385700	0.29003900	0.30371100	-0.56298800	-0.57080100	0.08886700	-0.68212900	-0.04126000	-0.43798800
2067	20.66000000	-0.92553700	-0.09082000	0.07275400	-0.49438500	0.14941400	-0.75927700	-0.10595700	-0.77148400	-0.20752000	-0.77050800	-0.28710900	0.09960900	-0.64746100	0.46752900	0.05542000	-0.70385700	0.29003900	0.30371100	-0.56713900	-0.56665000	0.06787100	-0.68188500	-0.05224600	-0.44238300
2068	20.67000000	-0.92578100	-0.08862300	0.07251000	-0.49877900	0.15551800	-0.76660200	-0.10156200	-0.76953100	-0.22973600	-0.77710000	-0.27685500	0.09228500	-0.64550800	0.47412100	0.05517600	-0.70190400	0.29663100	0.31054700	-0.56933600	-0.56665000	0.05127000	-0.68164100	-0.05664100	-0.43798800
2069	20.68000000	-0.92334000	-0.09301800	0.06835900	-0.49658200	0.15551800	-0.76196300	-0.10815400	-0.76098600	-0.25927700	-0.77734400	-0.26440400	0.09643600	-0.64990200	0.47631800	0.05737300	-0.69751000	0.29663100	0.30835000	-0.57763700	-0.56054700	0.03637700	-0.68188500	-0.05224600	-0.43335000
2070	20.69000000	-0.92529300	-0.09716800	0.06860400	-0.49267600	0.16186500	-0.75976600	-0.11279300	-0.74633800	-0.27758800	-0.77954100	-0.26025400	0.08252000	-0.64819300	0.48730500	0.05444300	-0.69555700	0.30322300	0.31030300	-0.57983400	-0.55224600	0.00927700	-0.68408200	-0.05004900	-0.43335000
2071	20.70000000	-0.92578100	-0.08862300	0.06591800	-0.49267600	0.16626000	-0.76464800	-0.13427700	-0.73168900	-0.29589800	-0.78418000	-0.24975600	0.07763700	-0.63940400	0.49389600	0.05395500	-0.69580100	0.30957000	0.31713900	-0.58837900	-0.54418900	-0.01391600	-0.68408200	-0.05224600	-0.42895500
2072	20.71000000	-0.92358400	-0.08862300	0.06811500	-0.48852500	0.17041000	-0.75781200	-0.14477500	-0.72534200	-0.30957000	-0.79077100	-0.23754900	0.08178700	-0.63525400	0.50488300	0.05566400	-0.68920900	0.31396500	0.31250000	-0.59912100	-0.53198200	-0.04321300	-0.69091800	-0.04565400	-0.42895500
2073	20.72000000	-0.92993200	-0.09082000	0.06835900	-0.48852500	0.16821300	-0.76464800	-0.16796900	-0.72119100	-0.30981400	-0.79516600	-0.22924800	0.07226600	-0.63501000	0.49609400	0.05615200	-0.68945300	0.32055700	0.30786100	-0.60156200	-0.51953100	-0.07055700	-0.69067400	-0.05249000	-0.41992200
